# xmcd CD database file
#
# Track frame offsets:
#	150
#	19152
#	31755
#	47718
#	64901
#	75375
#	88379
#	104212
#	114136
#	130980
#	149066
#	170299
#	185241
#	202198
#	224553
#	234911
#	254307
#	274770
#	290624
#	303966
#	321560
#
# Disc length: 4599 seconds
#
# Revision: 1
# Processed by: cddbd v1.5.2PL0 Copyright (c) Steve Scherf et al.
# Submitted via: CDex 1.51
#
DISCID=4811f515
DTITLE=Various Artist - ZM-TP-MH-Disc-1
DYEAR=1900
DGENRE=Blues
TTITLE0=Tom Jones - A Boy From Nowhere
TTITLE1=Elvis Presley - A Fool Such As I
TTITLE2=Phil Collins - A Groovy Kind Of Love
TTITLE3=Cliff Richard - A Little In Love
TTITLE4=Cliff Richard - A Voice In The Wilderness
TTITLE5=Neil Diamond - Acapulco
TTITLE6=Phil Collins - Against All Odds (take a look at me now)
TTITLE7=Elvis Presley - All Shook Up
TTITLE8=Elvis Presley - Always on My Mind
TTITLE9=Neil Diamond - America
TTITLE10=Phil Collins - Another Day In Paradise
TTITLE11=Elvis Presley - Are You Lonesome Tonight
TTITLE12=Elton John - Are You Ready For Love
TTITLE13=Rod Stewart - Baby Jane
TTITLE14=Cliff Richard - Bachelor Boy
TTITLE15=Michael Jackson - Bad
TTITLE16=Michael Jackson - Beat It
TTITLE17=Neil Diamond - Beautiful Noise
TTITLE18=Michael Jackson - Ben
TTITLE19=Barry Manilow - Bermuda Triangle
TTITLE20=Michael Jackson - Billie Jean
EXTD=
EXTT0=
EXTT1=
EXTT2=
EXTT3=
EXTT4=
EXTT5=
EXTT6=
EXTT7=
EXTT8=
EXTT9=
EXTT10=
EXTT11=
EXTT12=
EXTT13=
EXTT14=
EXTT15=
EXTT16=
EXTT17=
EXTT18=
EXTT19=
EXTT20=
PLAYORDER=
